<svg xmlns="http://www.w3.org/2000/svg" viewBox="0 0 500 500" width="100%" height="100%">
  <defs>
    <mask id="mascara-recorte">
      <rect width="100%" height="100%" fill="white" />
      
      <path d="M 250,55 
               A 18,18 0 0,1 280,62 A 18,18 0 0,1 306,78 A 18,18 0 0,1 323,102
               A 18,18 0 0,1 329,132 A 18,18 0 0,1 323,162 A 18,18 0 0,1 306,186
               A 18,18 0 0,1 280,202 A 18,18 0 0,1 250,209 A 18,18 0 0,1 220,202
               A 18,18 0 0,1 194,186 A 18,18 0 0,1 177,162 A 18,18 0 0,1 171,132
               A 18,18 0 0,1 177,102 A 18,18 0 0,1 194,78 A 18,18 0 0,1 220,62
               A 18,18 0 0,1 250,55 Z" 
            fill="black" />

      <path d="M 248,275 C 235,263 210,235 195,248 C 185,265 215,290 246,301" 
            fill="black" stroke="black" stroke-width="6" />
      <path d="M 252,275 C 265,263 290,235 305,248 C 315,265 285,290 254,301" 
            fill="black" stroke="black" stroke-width="6" />
      <line x1="250" y1="209" x2="250" y2="303" stroke="black" stroke-width="6" />

      <path d="M 175,305 L 325,305 
               A 5,5 0 0,1 330,310 L 330,335 
               A 5,5 0 0,1 325,340 L 315,340 L 305,450 
               A 8,8 0 0,1 297,458 L 203,458 
               A 8,8 0 0,1 195,450 L 185,340 L 175,340 
               A 5,5 0 0,1 170,335 L 170,310 
               A 5,5 0 0,1 175,305 Z" 
            fill="black" />
    </mask>
  </defs>

  <rect width="100%" height="100%" fill="#fdfdfd" mask="url(#mascara-recorte)" />

  <path d="M 250,55 
           A 18,18 0 0,1 280,62 A 18,18 0 0,1 306,78 A 18,18 0 0,1 323,102
           A 18,18 0 0,1 329,132 A 18,18 0 0,1 323,162 A 18,18 0 0,1 306,186
           A 18,18 0 0,1 280,202 A 18,18 0 0,1 250,209 A 18,18 0 0,1 220,202
           A 18,18 0 0,1 194,186 A 18,18 0 0,1 177,162 A 18,18 0 0,1 171,132
           A 18,18 0 0,1 177,102 A 18,18 0 0,1 194,78 A 18,18 0 0,1 220,62
           A 18,18 0 0,1 250,55 Z" 
        fill="none" stroke="#D35400" stroke-width="3" stroke-linejoin="round" />
        
  <path d="M 248,275 C 235,263 210,235 195,248 C 185,265 215,290 246,301" 
        fill="none" stroke="#27AE60" stroke-width="3" stroke-linecap="round" />
  <path d="M 252,275 C 265,263 290,235 305,248 C 315,265 285,290 254,301" 
        fill="none" stroke="#27AE60" stroke-width="3" stroke-linecap="round" />
        
  <line x1="250" y1="209" x2="250" y2="303" fill="none" stroke="#27ae5f00" stroke-width="6" stroke-linecap="round" />

  <path d="M 175,305 L 325,305 
           A 5,5 0 0,1 330,310 L 330,335  
           A 5,5 0 0,1 325,340 L 315,340 L 305,450 
           A 8,8 0 0,1 297,458 L 203,458 
           A 8,8 0 0,1 195,450 L 185,340 L 175,340 
           A 5,5 0 0,1 170,335 L 170,310 
           A 5,5 0 0,1 175,305 Z" 
        fill="none" stroke="#D3A26A" stroke-width="3" stroke-linejoin="round" />
</svg>
